<svg xmlns="http://www.w3.org/2000/svg" width="710" height="529" viewBox="0 0 710 529" fill="none">
  <g filter="url(#filter0_d_626_1431)">
    <path d="M363.241 325.402C381.899 305.402 377.651 279.873 396.419 260.017C427.123 227.534 466.599 261.929 499.273 232.254C528.863 205.38 517.17 160.5 547.425 134.68C590.182 98.1899 644.668 175.778 682.436 132.266C698.975 113.212 705.397 92.2994 710 70V529H70C70.6677 525.721 71.3989 522.438 72.2042 519.142C86.1247 462.166 170.693 466.724 224.401 416.639C246.809 395.741 254.483 376.573 278.848 359C308.536 337.587 337.476 353.019 363.241 325.402Z" fill="#0D0F16"/>
  </g>
  <defs>
    <filter id="filter0_d_626_1431" x="0" y="0" width="740" height="559" filterUnits="userSpaceOnUse" color-interpolation-filters="sRGB">
      <feFlood flood-opacity="0" result="BackgroundImageFix"/>
      <feColorMatrix in="SourceAlpha" type="matrix" values="0 0 0 0 0 0 0 0 0 0 0 0 0 0 0 0 0 0 127 0" result="hardAlpha"/>
      <feOffset dx="-20" dy="-20"/>
      <feGaussianBlur stdDeviation="25"/>
      <feColorMatrix type="matrix" values="0 0 0 0 0 0 0 0 0 0 0 0 0 0 0 0 0 0 0.2 0"/>
      <feBlend mode="normal" in2="BackgroundImageFix" result="effect1_dropShadow_626_1431"/>
      <feBlend mode="normal" in="SourceGraphic" in2="effect1_dropShadow_626_1431" result="shape"/>
    </filter>
  </defs>
</svg>