<svg xmlns="http://www.w3.org/2000/svg" width="50" height="50" viewBox="0 0 50 50" fill="none">
  <g opacity="0.5">
    <path d="M40.1925 14.8851C38.1772 14.8851 36.5376 16.5246 36.5376 18.54C36.5376 19.323 36.7858 20.0486 37.2067 20.644L31.9837 26.194C31.4254 25.848 30.7679 25.6475 30.0642 25.6475C29.1068 25.6475 28.2347 26.0179 27.5823 26.6225L23.2718 23.533C23.476 23.0776 23.5905 22.5736 23.5905 22.0431C23.5905 20.0278 21.9509 18.3882 19.9356 18.3882C17.9204 18.3882 16.2808 20.0278 16.2808 22.0431C16.2808 22.7131 16.4628 23.3411 16.7788 23.8816L11.9882 28.1621C11.3791 27.7076 10.6241 27.4382 9.80732 27.4382C7.79199 27.4382 6.15234 29.0778 6.15234 31.0931C6.15234 33.1084 7.79199 34.748 9.80723 34.748C11.8225 34.748 13.4621 33.1084 13.4621 31.0931C13.4621 30.4231 13.2801 29.795 12.9641 29.2545L17.7547 24.974C18.3639 25.4284 19.1188 25.6979 19.9356 25.6979C20.893 25.6979 21.7651 25.3274 22.4175 24.7229L26.728 27.8124C26.5238 28.2678 26.4093 28.7718 26.4093 29.3024C26.4093 31.3177 28.0489 32.9573 30.0642 32.9573C32.0794 32.9573 33.719 31.3177 33.719 29.3024C33.719 28.5194 33.4708 27.7938 33.0499 27.1984L38.2729 21.6484C38.8312 21.9944 39.4888 22.1949 40.1925 22.1949C42.2078 22.1949 43.8474 20.5553 43.8474 18.54C43.8474 16.5246 42.2077 14.8851 40.1925 14.8851ZM9.80732 33.2831C8.59971 33.2831 7.61729 32.3007 7.61729 31.0931C7.61729 29.8855 8.5998 28.9031 9.80732 28.9031C11.0148 28.9031 11.9974 29.8855 11.9974 31.0931C11.9974 32.3007 11.0148 33.2831 9.80732 33.2831ZM19.9357 24.233C18.7281 24.233 17.7457 23.2505 17.7457 22.043C17.7457 20.8354 18.7281 19.853 19.9357 19.853C21.1434 19.853 22.1258 20.8354 22.1258 22.043C22.1258 23.2077 21.1439 24.233 19.9357 24.233ZM30.0642 31.4924C28.8566 31.4924 27.8741 30.51 27.8741 29.3024C27.8741 28.0948 28.8566 27.1123 30.0642 27.1123C31.2718 27.1123 32.2542 28.0948 32.2542 29.3024C32.2542 30.51 31.2717 31.4924 30.0642 31.4924ZM40.1927 20.73C38.9852 20.73 38.0026 19.7476 38.0026 18.54C38.0025 17.3324 38.9851 16.3499 40.1927 16.3499C41.4003 16.3499 42.3827 17.3324 42.3827 18.54C42.3827 19.7476 41.4002 20.73 40.1927 20.73Z" fill="white"/>
    <path d="M46.5716 4.4377H42.2476C41.8431 4.4377 41.5152 4.76562 41.5152 5.17012C41.5152 5.57461 41.8431 5.90254 42.2476 5.90254H46.5716C47.0431 5.90254 47.4267 6.28613 47.4267 6.75771V9.05801C47.4267 9.52949 47.0431 9.91309 46.5716 9.91309H11.0952C10.7004 9.91309 10.3628 10.2501 10.3628 10.6455C10.3628 11.0389 10.7026 11.3779 11.0952 11.3779H45.839V39.485H4.16053V11.3779C4.16053 11.3779 8.15945 11.3779 8.16551 11.3779C8.55623 11.3779 8.89793 11.0362 8.89793 10.6455C8.89793 10.2484 8.5619 9.91309 8.16551 9.91309H3.42811C2.95662 9.91309 2.57303 9.52949 2.57303 9.05801V6.75771C2.57303 6.28613 2.95662 5.90254 3.42811 5.90254H22.2493H27.7504H39.3179C39.7223 5.90254 40.0503 5.57461 40.0503 5.17012C40.0503 4.76562 39.7223 4.4377 39.3179 4.4377H28.4828V3.48291C28.4828 1.5625 26.9204 0 24.9999 0C23.0793 0 21.5169 1.5625 21.5169 3.48301V4.43779H3.42811C2.14891 4.43779 1.10818 5.47852 1.10818 6.75781V9.05811C1.10818 10.0814 1.7744 10.9515 2.69568 11.2589V40.2175C2.69568 40.622 3.02361 40.9499 3.42811 40.9499H24.2675V43.7313C22.8675 44.063 21.8224 45.3227 21.8224 46.8227C21.8223 48.5746 23.2478 50 24.9999 50C26.7519 50 28.1773 48.5746 28.1773 46.8226C28.1773 45.3227 27.1323 44.063 25.7323 43.7313V40.9498H46.5716C46.9761 40.9498 47.304 40.6219 47.304 40.2174V11.2588C48.2253 10.9514 48.8916 10.0813 48.8916 9.05801V6.75771C48.8915 5.47852 47.8508 4.4377 46.5716 4.4377ZM24.9999 1.46484C26.1127 1.46484 27.018 2.37021 27.018 3.48301V4.43779H22.9817V3.48301C22.9817 2.37021 23.8871 1.46484 24.9999 1.46484ZM26.7125 46.8226C26.7125 47.7669 25.9442 48.5352 24.9999 48.5352C24.0555 48.5352 23.2873 47.7669 23.2873 46.8226C23.2873 45.8988 24.023 45.1455 24.939 45.1131C24.9592 45.1147 24.9794 45.1161 24.9999 45.1161C25.0204 45.1161 25.0406 45.1147 25.0607 45.1131C25.9767 45.1455 26.7125 45.8987 26.7125 46.8226Z" fill="white"/>
  </g>
</svg>