<svg xmlns="http://www.w3.org/2000/svg" width="50" height="50" viewBox="0 0 50 50" fill="none">
  <g opacity="0.5" clip-path="url(#clip0_1447_1428)">
    <path d="M33.0002 24.0234C33.5395 24.0234 33.9767 23.5862 33.9767 23.0469C33.9767 22.5075 33.5395 22.0703 33.0002 22.0703C32.4608 22.0703 32.0236 22.5075 32.0236 23.0469C32.0236 23.5862 32.4608 24.0234 33.0002 24.0234Z" fill="white"/>
    <path d="M33.1677 27.2313C32.6346 27.1521 32.1376 27.5208 32.0586 28.0543C31.7917 29.8565 30.2683 31.3512 27.9835 32.0528C25.5414 32.8027 22.1517 32.5513 20.0838 30.2995C19.719 29.9022 19.1012 29.876 18.704 30.2407C18.3068 30.6055 18.2805 31.2233 18.6452 31.6205C19.8423 32.9241 21.4682 33.8126 23.3471 34.1898C24.0106 34.323 24.6989 34.3891 25.3916 34.3891C26.4618 34.3891 27.5424 34.2314 28.5569 33.9199C31.5793 32.9919 33.6107 30.9061 33.9907 28.3404C34.0697 27.8069 33.7012 27.3103 33.1677 27.2313Z" fill="white"/>
    <path d="M46.7409 18.5948C44.9659 16.5371 42.5161 15.2029 39.5673 14.6671C42.3905 12.7618 44.8257 10.8657 46.562 9.21123C49.2094 6.68867 50.0971 4.91602 49.3559 3.63291C48.531 2.20381 46.1501 2.21367 41.8624 3.66426C38.2396 4.88984 33.7266 7.01846 29.1547 9.65811C28.3649 10.114 27.5826 10.5808 26.8172 11.0512C26.2495 9.44795 26.6239 7.6166 27.8765 6.02861C28.8146 4.83916 29.0241 3.32842 28.4232 2.08574C27.7933 0.783301 26.4109 0.00351562 24.7229 0H24.677C18.7194 0 12.8922 2.35068 8.26883 6.61904C3.63973 10.8927 0.805747 16.5501 0.28895 22.549C-0.332828 29.7736 1.97655 36.6422 6.79149 41.8894C11.5214 47.0438 18.2269 50 25.1888 50C28.9368 50 32.4554 49.3143 35.6465 47.9616C38.5644 46.7248 41.1557 44.9588 43.3482 42.7124C45.3811 40.6295 46.984 38.2317 48.1122 35.5855C49.1858 33.0676 49.7724 30.3992 49.8087 27.869C49.8615 24.1896 48.8007 20.9826 46.7409 18.5948ZM26.9313 13.2801C27.9649 12.6282 29.0414 11.9787 30.1311 11.3496C34.3583 8.90898 38.5677 6.89873 41.984 5.68906C45.7447 4.35752 47.2845 4.44443 47.6434 4.61631C47.6124 4.84355 47.3302 5.85459 44.8623 8.12725C42.8016 10.025 39.7923 12.2567 36.3889 14.4113C35.313 15.0927 34.1932 15.7698 33.0609 16.4237C31.4999 17.3247 29.94 18.1672 28.4091 18.9386C28.1036 18.0471 27.7121 17.1819 27.2356 16.3565C26.7738 15.5566 26.2382 14.8057 25.6394 14.1108C26.0632 13.8331 26.4943 13.5554 26.9313 13.2801ZM26.6397 19.8049C23.8822 21.1126 21.3519 22.1096 19.3313 22.6879C19.2262 22.1827 19.0412 21.6944 18.7788 21.2395C18.5301 20.8084 18.2181 20.4229 17.8574 20.0905C19.3701 18.6307 21.4992 16.9393 24.0062 15.2089C24.5883 15.8594 25.1043 16.5709 25.5442 17.3329C25.9992 18.121 26.3654 18.9499 26.6397 19.8049ZM47.8557 27.841C47.7165 37.5586 39.0107 48.0469 25.1888 48.0469C18.7725 48.0469 12.5916 45.3213 8.23065 40.5689C3.78993 35.7297 1.66073 29.3896 2.23495 22.7166C3.22118 11.2676 13.2887 1.95312 24.677 1.95312H24.7209C25.6552 1.95508 26.3638 2.31328 26.6648 2.93604C26.9417 3.5085 26.8214 4.2124 26.3429 4.81904C24.5828 7.05049 24.1414 9.79492 25.1358 12.1089C24.6123 12.4462 24.0977 12.785 23.6006 13.121C23.5982 13.1226 23.5959 13.1241 23.5936 13.1257C20.4883 15.2211 17.866 17.3054 16.1213 19.0594C14.798 18.6071 13.3441 18.739 12.1084 19.4522C10.0795 20.6242 7.41542 26.0856 6.90204 27.1686C6.76454 27.4584 6.77831 27.7974 6.93866 28.0752C7.09911 28.353 7.38573 28.5344 7.70545 28.5604C8.2452 28.6041 9.77792 28.7146 11.4839 28.7146C13.554 28.7146 15.879 28.5518 16.9913 27.9093C18.1962 27.2138 19.0313 26.0517 19.3206 24.7157C21.7154 24.0871 24.8444 22.8573 28.2333 21.2062C30.132 20.2821 32.0848 19.2422 34.0375 18.1152C35.028 17.5432 36.0073 16.9534 36.9591 16.3586C36.9648 16.3589 36.9704 16.3598 36.9762 16.36C45.1157 16.5934 47.9332 22.4438 47.8557 27.841ZM17.4749 23.8643C17.4124 24.8464 16.8667 25.7261 16.0147 26.2179C15.0912 26.7514 11.9185 26.8232 9.31356 26.7041C10.5123 24.3893 12.1606 21.6777 13.0851 21.1437C13.958 20.6398 15.0133 20.6178 15.9086 21.0849C16.4007 21.3411 16.8081 21.732 17.087 22.2155C17.3771 22.7185 17.5112 23.2886 17.4749 23.8643Z" fill="white"/>
    <path d="M17.3753 6.03909C15.2214 6.03909 13.4691 7.79144 13.4691 9.94534C13.4691 12.0992 15.2214 13.8516 17.3753 13.8516C19.5292 13.8516 21.2816 12.0992 21.2816 9.94534C21.2816 7.79144 19.5292 6.03909 17.3753 6.03909ZM17.3753 11.8985C16.2984 11.8985 15.4222 11.0223 15.4222 9.94534C15.4222 8.86839 16.2984 7.99222 17.3753 7.99222C18.4523 7.99222 19.3284 8.86839 19.3284 9.94534C19.3284 11.0223 18.4523 11.8985 17.3753 11.8985Z" fill="white"/>
    <path d="M12.4925 32.2802C10.3386 32.2802 8.58624 34.0326 8.58624 36.1865C8.58624 38.3404 10.3386 40.0927 12.4925 40.0927C14.6464 40.0927 16.3987 38.3404 16.3987 36.1865C16.3987 34.0326 14.6464 32.2802 12.4925 32.2802ZM12.4925 38.1396C11.4155 38.1396 10.5394 37.2634 10.5394 36.1865C10.5394 35.1095 11.4155 34.2333 12.4925 34.2333C13.5694 34.2333 14.4456 35.1095 14.4456 36.1865C14.4456 37.2634 13.5694 38.1396 12.4925 38.1396Z" fill="white"/>
    <path d="M22.2581 38.1396C20.1042 38.1396 18.3519 39.892 18.3519 42.0459C18.3519 44.1998 20.1042 45.9521 22.2581 45.9521C24.412 45.9521 26.1644 44.1998 26.1644 42.0459C26.1644 39.892 24.412 38.1396 22.2581 38.1396ZM22.2581 43.999C21.1812 43.999 20.305 43.1229 20.305 42.0459C20.305 40.9689 21.1812 40.0928 22.2581 40.0928C23.3351 40.0928 24.2112 40.9689 24.2112 42.0459C24.2112 43.1229 23.3351 43.999 22.2581 43.999Z" fill="white"/>
    <path d="M33.9769 36.1865C31.823 36.1865 30.0706 37.9388 30.0706 40.0927C30.0706 42.2466 31.823 43.999 33.9769 43.999C36.1308 43.999 37.8831 42.2466 37.8831 40.0927C37.8831 37.9388 36.1308 36.1865 33.9769 36.1865ZM33.9769 42.0458C32.8999 42.0458 32.0237 41.1697 32.0237 40.0927C32.0237 39.0158 32.8999 38.1396 33.9769 38.1396C35.0538 38.1396 35.93 39.0158 35.93 40.0927C35.93 41.1697 35.0538 42.0458 33.9769 42.0458Z" fill="white"/>
    <path d="M41.7894 26.4208C39.6355 26.4208 37.8831 28.1732 37.8831 30.3271C37.8831 32.481 39.6355 34.2333 41.7894 34.2333C43.9433 34.2333 45.6956 32.481 45.6956 30.3271C45.6956 28.1732 43.9433 26.4208 41.7894 26.4208ZM41.7894 32.2802C40.7124 32.2802 39.8362 31.404 39.8362 30.3271C39.8362 29.2501 40.7124 28.374 41.7894 28.374C42.8663 28.374 43.7425 29.2501 43.7425 30.3271C43.7425 31.404 42.8663 32.2802 41.7894 32.2802Z" fill="white"/>
  </g>
  <defs>
    <clipPath id="clip0_1447_1428">
      <rect width="50" height="50" fill="white"/>
    </clipPath>
  </defs>
</svg>